<?xml version="1.0" encoding="utf-8"?>
<!-- Generator: Adobe Illustrator 27.5.0, SVG Export Plug-In . SVG Version: 6.00 Build 0)  -->
<svg version="1.1" id="Layer_1" xmlns="http://www.w3.org/2000/svg" xmlns:xlink="http://www.w3.org/1999/xlink" x="0px" y="0px"
	 viewBox="0 0 274.711 354.936" style="enable-background:new 0 0 274.711 354.936;" xml:space="preserve">
<g>
	<g>
		<path style="fill:#FFFFFF;" d="M269.972,186.467c-3.165-4.491-6.614-8.77-9.496-13.456c-4.895-11.013-9.805-22.019-14.683-33.04
			c-2.294-5.184-4.527-10.401-6.901-15.549c-1.516-3.287-3.195-6.987-6.402-8.974c-4.089-2.531-7.479,0.689-10.035,3.806
			c-2.298,2.8-4.89,5.425-6.866,8.468c-2.113,3.252-4.56,6.242-6.474,9.626c-0.904,1.598-1.775,3.228-2.62,4.856
			c-0.597,1.151-0.925,2.406-1.438,3.589c-5.655-5.986-7.956-14.276-10.786-21.872c-2.664-7.156-4.246-14.727-7.123-21.782
			c-2.706-6.63-7.673-9.269-14.253-11.232c-3.938-1.176-7.532-2.76-9.378-6.658c-1.909-4.029-0.238-9.192,1.044-13.132
			c3.644-11.19,6.098-22.279,4.615-34.095c-0.413-3.299-1.086-6.588-1.918-9.806c-0.873-3.367-2.419-6.224-4.353-9.085
			c-1.284-1.9-2.792-3.642-4.562-5.105c-4.051-3.346-9.177-5.093-14.274-6.069c-10.241-1.962-22.602-1.829-30.756,5.563
			c-2.219,2.011-4.058,4.4-5.696,6.897c-0.889,1.355-1.719,2.746-2.524,4.151c-7.495,13.088-1.57,33.632,4.661,46.252
			c3.286,6.654,10.618,16.93,4.17,24.15c-4.509,5.048-13.257,3.072-19.042,5.661c-5.921,2.651-6.886,9.385-8.016,15.046
			c-1.648,8.242-1.822,16.648-3.108,24.942c-1.396,9.012-3.29,18.243-7.297,26.496c-2.411,4.967-6.199,9.163-9.414,13.609
			c-3.094,4.283-6.095,8.456-8.552,13.157c-5.155,9.864-7.097,20.67-10.398,31.194c-2.188,6.973-5.325,13.398-9.108,19.477
			c-4.361,5.237-9.138,10.162-14.138,14.804c-1.909,1.771-3.56,3.839-5.212,5.843c-2.196,2.663-4.635,4.815-7.076,7.216
			c-1.795,1.767-3.252,3.992-4.546,6.143c-1.107,1.844-2.829,3.665-3.33,5.789c-0.028,0.117,0.03,0.338,0.183,0.35
			c1.157,0.089,2.262-0.482,3.321-1.14c-1.768,3.979-2.635,8.317-1.929,12.443c0.053,0.312,0.379,0.175,0.543,0.049
			c1.539-1.18,2.688-2.744,3.944-4.206c2.275-2.648,4.877-4.909,7.873-6.699c2.745-1.641,5.711-2.716,8.761-3.624
			c3.301-0.983,6.428-0.88,9.799-1.184c5.182-0.469,8.625-3.732,12.765-6.392c0.063-0.041,0.12-0.083,0.181-0.123
			c-1.241,1.362-2.482,2.76-3.445,4.29c-1.102,1.751-2.65,3.121-3.737,4.857c-0.102,0.163-0.151,0.591,0.167,0.539
			c0.995-0.166,1.562-0.462,2.361-1.099c2.005-1.597,4.239-3.225,6.633-4.174c3.733-1.481,7.435-2.602,10.764-4.933
			c1.519-1.064,2.758-2.458,4.045-3.78c0.802-0.828,1.639-1.544,2.606-2.184c-0.029,0.02-0.975,0.715-1.169,1.058
			c-1.006,1.779-2.499,3.263-3.626,4.967c-1.286,1.947-2.373,4.015-3.652,5.962c-4.989,7.588-7.726,16.534-10.679,25.052
			c-1.552,4.478-3.02,8.961-4.521,13.458c-0.69,2.063-1.404,4.112-2.213,6.133c-0.651,1.632-1.711,3.038-2.272,4.7
			c-0.062,0.186-0.03,0.453,0.225,0.43c1.927-0.177,3.552-1.095,5.224-2.006c2.892-1.577,6.176-2.659,9.283-3.721
			c5.979-2.044,12.338-2.227,18.448-3.697c4.775-1.148,9.772-2.788,13.536-6.054c1.713-1.486,3.177-3.206,4.46-5.068
			c1.095-1.591,1.938-3.319,3.017-4.895c-1.257,2.755-3.077,5.294-3.804,8.233c-0.446,1.808,1.288,2.266,2.548,1.674
			c2.792-1.308,4.844-4.347,7.014-6.431c2.507-2.407,4.212-5.097,6.127-7.914c-0.2,1.508-1.002,3.646-1.3,4.788
			c-0.472,1.811-1.178,3.571-1.715,5.366c-0.944,3.148-1.817,6.414-1.819,9.719c-0.004,4.315-0.006,8.629-0.009,12.944
			c-0.001,1.712-0.515,4.986,0.828,6.37c0.175,0.182,0.508-0.086,0.612-0.218c0.768-0.994,1.14-2.09,1.634-3.236
			c1.221-2.83,1.78-5.43,3.893-7.838c3.484-3.974,8.712-5.092,12.378-8.765c2.2-2.202,3.974-5.177,5.289-8.115
			c0.64,2.464,1.447,4.9,2.07,7.254c1.497,5.631,1.71,10.854,1.679,16.649c-0.016,2.685,0.387,5.525,0.683,8.196
			c0.285,2.561,1.397,4.937,1.56,7.494c0.032,0.505,0.69,0.022,0.792-0.178c0.567-1.105,0.821-2.129,0.831-3.385
			c0.022-2.677,1.199-5.664,1.935-8.194c1.523-5.247,2.602-11.191,5.09-16.082c2.245-4.41,4.785-8.475,6.759-13.037
			c2.484-5.74,5.479-10.628,9.278-15.581c2.673-3.486,5.228-6.87,6.654-11.055c1.425-4.179,1.758-7.836,1.573-12.259
			c-0.218-5.249-0.136-10.541-0.57-15.775c-0.081-0.974-0.113-1.945-0.144-2.917c0.657,2.089,1.365,4.161,2.154,6.213
			c2.291,5.959,4.405,11.922,5.654,18.198c0.291,1.466,0.154,9.241,2.97,8.095c1.242-0.506,1.77-1.96,1.942-3.589
			c1.071,3.247,2.548,6.333,3.751,9.586c0.827,2.237,1.264,4.739,1.499,7.293c2.458-4.208,5.974-8.007,9.011-11.241
			c1.152-1.23,2.329-2.441,3.479-3.676c1.063-1.705,2.146-3.397,3.266-5.083c1.724-2.596,2.894-5.466,4.561-8.1
			c3.508-5.54,0.697-11.566,0.094-17.526c-0.217-2.141-0.522-4.271-0.818-6.403c0.178,0.551,0.361,1.096,0.563,1.624
			c1.985,5.191,4.191,10.22,5.944,15.518c1.432,4.33,2.709,8.691,3.549,13.161c-0.061-3.907,0.153-7.785,1.248-11.518
			c0.713-2.427,1.627-4.771,2.636-7.077c0.438-1.898,0.822-3.674,1.649-5.533c0.871-1.958,1.365-4.03,2.122-6.033
			c0.764-2.015,1.762-3.928,2.529-5.94c0.794-2.082,1.263-4.297,1.93-6.422c1.03-3.286,1.163-6.458,0.982-9.774
			c0.523,1.085,0.943,2.397,1.202,3.192c0.604,1.854,1.122,3.848,1.968,5.599c0.201,0.417,0.762-0.186,0.832-0.406
			c0.801-2.518,0.784-5.506,1.255-8.11c0.336-1.864,0.585-3.659,0.377-5.547c-0.043-0.386-0.109-0.768-0.186-1.147
			c2.959,6.253,5.905,12.516,9.411,18.487c0.426,0.724,1.732,2.42,2.505,1.056c1.182-2.089-0.063-5.628-0.359-7.793
			c-0.645-4.721-0.289-9.392,0.438-14.083c0.586-3.789,2.016-7.539,2.017-11.408c0.005-7.356-1.9-14.857-4.114-21.933
			c2.414,3.064,5.249,6.083,8.481,8.054c1.704,1.04,3.949,1.061,5.831,1.605c2.604,0.752,5.339,0.721,7.764,2.059
			c0.38,0.209,0.957-0.426,0.765-0.8c-2.124-4.122-5.34-7.883-7.568-12.015c1.737,1.502,3.336,3.251,5.182,4.607
			c1.96,1.439,4.873,3.363,7.298,3.786C269.604,187.401,270.219,186.819,269.972,186.467z"/>
		<path style="fill:#A3A5A8;" d="M133.438,349.611c-0.336,0-0.713-0.234-0.746-0.748c-0.082-1.305-0.421-2.552-0.78-3.874
			c-0.314-1.157-0.639-2.354-0.776-3.594c-0.053-0.473-0.109-0.951-0.165-1.434c-0.264-2.254-0.535-4.585-0.523-6.828
			c0.034-6.207-0.231-11.133-1.658-16.501c-0.293-1.103-0.619-2.203-0.965-3.368c-0.236-0.792-0.477-1.602-0.707-2.418
			c-1.09,2.188-2.673,4.82-4.751,6.898c-1.787,1.79-3.935,2.993-6.013,4.158c-2.347,1.314-4.564,2.556-6.339,4.58
			c-1.494,1.703-2.191,3.544-2.929,5.495c-0.269,0.711-0.547,1.446-0.872,2.196c-0.091,0.212-0.177,0.421-0.264,0.628
			c-0.379,0.915-0.771,1.861-1.442,2.729c-0.143,0.186-0.496,0.497-0.908,0.497c-0.209,0-0.405-0.082-0.548-0.23
			c-1.247-1.287-1.121-3.791-1.028-5.619c0.021-0.423,0.041-0.813,0.041-1.143l0.009-12.943c0.001-3.449,0.952-6.908,1.842-9.88
			c0.227-0.758,0.487-1.517,0.737-2.251c0.346-1.012,0.704-2.058,0.973-3.094c0.097-0.375,0.249-0.855,0.415-1.384
			c0.031-0.099,0.063-0.199,0.095-0.302c-1.304,1.884-2.658,3.678-4.407,5.357c-0.633,0.607-1.25,1.294-1.905,2.02
			c-1.572,1.744-3.197,3.548-5.259,4.514c-0.414,0.194-0.868,0.297-1.315,0.297c-0.719,0-1.346-0.274-1.719-0.749
			c-0.262-0.335-0.526-0.931-0.296-1.865c0.067-0.267,0.143-0.534,0.225-0.796c-0.943,1.15-1.931,2.171-2.986,3.085
			c-4.047,3.511-9.485,5.144-13.772,6.175c-2.519,0.606-5.109,0.999-7.614,1.381c-3.586,0.545-7.293,1.108-10.783,2.301
			l-0.568,0.194c-2.928,0.998-5.955,2.03-8.63,3.489l-0.174,0.096c-1.617,0.882-3.29,1.795-5.266,1.977
			c-0.016,0.001-0.063,0.003-0.082,0.003c-0.254,0-0.482-0.114-0.625-0.315c-0.165-0.23-0.203-0.551-0.099-0.855
			c0.322-0.956,0.796-1.823,1.255-2.663c0.383-0.698,0.744-1.357,1.027-2.067c0.873-2.181,1.636-4.408,2.202-6.104
			c0.394-1.178,0.786-2.357,1.177-3.534c1.082-3.256,2.2-6.622,3.346-9.928c0.346-0.999,0.689-2.003,1.034-3.011
			c2.587-7.576,5.264-15.409,9.705-22.167c0.627-0.952,1.219-1.957,1.792-2.927c0.592-1.004,1.203-2.041,1.861-3.036
			c0.066-0.099,0.132-0.198,0.201-0.295c-0.403,0.354-0.825,0.691-1.269,1.002c-2.705,1.893-5.568,2.975-8.6,4.12
			c-0.755,0.284-1.516,0.573-2.277,0.875c-2.375,0.942-4.614,2.597-6.491,4.092c-0.8,0.637-1.453,1.019-2.617,1.212
			c-0.031,0.006-0.112,0.012-0.143,0.012c-0.275,0-0.518-0.141-0.649-0.376c-0.18-0.324-0.107-0.761,0.057-1.024
			c0.566-0.905,1.252-1.714,1.915-2.495c0.636-0.75,1.294-1.525,1.823-2.365c0.257-0.408,0.53-0.805,0.819-1.195
			c-2.968,2.063-5.863,3.923-9.796,4.278c-0.912,0.082-1.813,0.136-2.682,0.187c-2.393,0.141-4.653,0.273-7.008,0.975
			c-2.471,0.735-5.687,1.807-8.634,3.568c-2.835,1.694-5.438,3.909-7.735,6.583c-0.266,0.31-0.527,0.623-0.788,0.937
			c-0.974,1.171-1.979,2.381-3.241,3.349c-0.101,0.076-0.369,0.256-0.684,0.256c-0.384,0-0.686-0.265-0.753-0.658
			c-0.598-3.496-0.127-7.369,1.361-11.287c-0.709,0.313-1.466,0.509-2.244,0.45c-0.215-0.017-0.406-0.125-0.536-0.305
			c-0.149-0.204-0.207-0.492-0.148-0.735c0.372-1.579,1.344-2.957,2.284-4.29c0.403-0.572,0.783-1.11,1.111-1.654
			c1.234-2.054,2.751-4.403,4.632-6.254c0.613-0.602,1.225-1.189,1.832-1.771c1.841-1.764,3.579-3.43,5.205-5.402l0.478-0.581
			c1.491-1.814,3.033-3.689,4.785-5.316c5.262-4.885,9.994-9.838,14.064-14.722c4.032-6.485,6.986-12.806,9.028-19.316
			c0.963-3.07,1.825-6.218,2.658-9.262c2.019-7.371,4.105-14.993,7.779-22.024c2.514-4.809,5.605-9.087,8.595-13.226
			c0.906-1.253,1.871-2.504,2.804-3.716c2.384-3.09,4.849-6.287,6.561-9.809c4.097-8.442,5.961-18.051,7.247-26.338
			c0.55-3.55,0.904-7.188,1.244-10.705c0.454-4.687,0.924-9.534,1.869-14.261l0.207-1.05c1.081-5.526,2.306-11.789,8.129-14.396
			c2.365-1.06,5.212-1.381,7.967-1.692c4.082-0.462,8.302-0.938,10.887-3.831c5.237-5.864,0.898-13.902-2.589-20.359
			c-0.606-1.122-1.178-2.182-1.666-3.169c-2.126-4.306-5.933-13.036-7.53-23.11c-1.535-9.683-0.563-17.646,2.885-23.668
			c0.943-1.646,1.75-2.975,2.541-4.179c1.943-2.961,3.783-5.188,5.789-7.005c4.964-4.5,11.846-6.78,20.456-6.78
			c3.406,0,7.034,0.365,10.783,1.083c6.163,1.18,10.915,3.205,14.524,6.188c1.715,1.416,3.287,3.174,4.67,5.223
			c2.28,3.373,3.646,6.227,4.432,9.258c0.893,3.45,1.544,6.773,1.933,9.876c1.605,12.777-1.444,24.528-4.638,34.338
			c-1.22,3.747-2.891,8.879-1.072,12.719c1.679,3.541,4.824,5.104,9.033,6.361c6.762,2.019,11.836,4.756,14.612,11.559
			c1.58,3.874,2.789,7.959,3.957,11.909c0.968,3.271,1.968,6.653,3.173,9.888c0.443,1.193,0.876,2.404,1.31,3.621
			c2.195,6.161,4.464,12.523,8.761,17.408c0.077-0.207,0.153-0.414,0.225-0.619c0.263-0.724,0.533-1.474,0.903-2.189
			c0.958-1.846,1.817-3.44,2.63-4.875c1.18-2.087,2.577-4.048,3.928-5.946c0.857-1.204,1.745-2.449,2.562-3.71
			c1.379-2.121,3.064-4.058,4.695-5.93c0.734-0.844,1.493-1.715,2.207-2.586c1.88-2.293,4.434-4.923,7.508-4.923
			c1.094,0,2.189,0.334,3.257,0.995c3.313,2.052,5.038,5.795,6.561,9.097l0.055,0.119c1.649,3.577,3.256,7.245,4.809,10.79
			c0.697,1.591,1.393,3.18,2.095,4.767c3.372,7.618,6.76,15.229,10.147,22.841l4.522,10.164c1.895,3.079,4.08,6.041,6.193,8.905
			c1.08,1.462,2.196,2.976,3.264,4.49c0.2,0.286,0.213,0.647,0.035,0.992c-0.194,0.373-0.664,0.771-1.152,0.771h-0.001
			c-0.031,0-0.114-0.008-0.145-0.013c-1.953-0.34-4.489-1.648-7.535-3.886c-0.806-0.592-1.568-1.26-2.306-1.94
			c0.523,0.794,1.06,1.58,1.589,2.354c1.384,2.023,2.814,4.117,3.933,6.287c0.158,0.309,0.129,0.682-0.08,1.026
			c-0.328,0.538-0.988,0.779-1.454,0.521c-1.465-0.809-3.053-1.088-4.732-1.386c-0.956-0.17-1.944-0.345-2.916-0.625
			c-0.623-0.18-1.285-0.3-1.985-0.427c-1.366-0.247-2.778-0.503-3.983-1.239c-2.253-1.375-4.507-3.356-6.839-6.024
			c1.688,5.732,3.33,12.665,3.326,19.426c-0.002,2.505-0.587,4.967-1.153,7.349c-0.323,1.36-0.659,2.768-0.871,4.143
			c-0.859,5.55-0.994,9.844-0.436,13.922c0.067,0.493,0.189,1.078,0.319,1.695c0.436,2.081,0.978,4.672-0.028,6.449
			c-0.374,0.661-0.862,0.799-1.206,0.799c-1.127,0-2.088-1.538-2.27-1.847c-2.992-5.095-5.608-10.47-8.113-15.744
			c-0.04,1.347-0.249,2.623-0.455,3.767c-0.175,0.966-0.28,1.971-0.391,3.037c-0.181,1.732-0.366,3.525-0.882,5.143
			c-0.104,0.329-0.598,0.94-1.166,0.94c-0.302,0-0.566-0.172-0.706-0.461c-0.659-1.364-1.122-2.862-1.57-4.312
			c-0.14-0.457-0.28-0.911-0.426-1.357l-0.03-0.092c-0.006-0.022-0.014-0.043-0.021-0.065c-0.056,2.052-0.319,4.356-1.065,6.733
			c-0.249,0.797-0.477,1.628-0.698,2.43c-0.364,1.33-0.741,2.707-1.243,4.022c-0.386,1.013-0.833,2.009-1.266,2.972
			c-0.434,0.967-0.883,1.967-1.262,2.97c-0.306,0.805-0.573,1.643-0.833,2.453c-0.381,1.191-0.775,2.424-1.301,3.608
			c-0.755,1.696-1.134,3.341-1.536,5.084l-0.08,0.347c-0.009,0.034-0.02,0.066-0.034,0.1c-1.145,2.611-1.974,4.839-2.611,7.01
			c-1.166,3.97-1.272,8.079-1.227,11.239c0.008,0.038,0.012,0.079,0.012,0.121c0,0.31-0.251,0.561-0.561,0.561h-0.011
			c-0.267,0-0.5-0.19-0.55-0.457c-0.727-3.867-1.816-7.904-3.53-13.088c-1.156-3.497-2.54-6.943-3.876-10.277
			c-0.294-0.734-0.594-1.481-0.893-2.232c0.061,0.513,0.118,1.025,0.169,1.537c0.155,1.527,0.465,3.096,0.764,4.614
			c0.872,4.417,1.771,8.984-0.942,13.268c-0.772,1.221-1.453,2.525-2.111,3.785c-0.75,1.439-1.526,2.927-2.454,4.325
			c-1.078,1.621-2.143,3.279-3.259,5.068c-0.019,0.031-0.04,0.061-0.065,0.086c-0.632,0.679-1.271,1.35-1.912,2.021
			c-0.525,0.55-1.049,1.101-1.569,1.656c-2.712,2.888-6.425,6.842-8.935,11.14c-0.123,0.211-0.366,0.315-0.605,0.265
			c-0.238-0.053-0.414-0.253-0.437-0.495c-0.262-2.852-0.741-5.191-1.467-7.151c-0.503-1.359-1.064-2.714-1.605-4.025
			c-0.506-1.22-1.022-2.466-1.497-3.731c-0.394,1.042-1.014,1.74-1.855,2.083c-0.254,0.103-0.505,0.156-0.746,0.156
			c-2.299,0-2.626-4.343-2.843-7.217c-0.048-0.635-0.09-1.186-0.142-1.443c-1.258-6.324-3.448-12.439-5.627-18.105
			c-0.28-0.728-0.557-1.476-0.832-2.248c0.197,2.905,0.258,5.842,0.316,8.697c0.04,1.906,0.079,3.876,0.16,5.805
			c0.206,4.911-0.259,8.521-1.603,12.464c-1.489,4.37-4.159,7.849-6.74,11.215c-3.942,5.141-6.869,10.055-9.209,15.463
			c-1.262,2.917-2.777,5.674-4.24,8.341c-0.844,1.535-1.715,3.122-2.533,4.728c-1.786,3.51-2.846,7.614-3.87,11.583
			c-0.377,1.46-0.767,2.971-1.183,4.401c-0.163,0.561-0.348,1.146-0.537,1.745c-0.667,2.11-1.358,4.294-1.374,6.297
			c-0.011,1.333-0.286,2.455-0.893,3.637C134.397,349.193,133.893,349.611,133.438,349.611z M127.26,308.673
			c0.015,0,0.032,0.001,0.048,0.001c0.237,0.02,0.436,0.188,0.495,0.418c0.334,1.293,0.721,2.594,1.095,3.853
			c0.333,1.122,0.678,2.28,0.975,3.4c1.458,5.488,1.73,10.496,1.695,16.795c-0.013,2.174,0.256,4.471,0.516,6.691
			c0.056,0.483,0.112,0.964,0.165,1.44c0.128,1.155,0.442,2.308,0.745,3.424c0.291,1.072,0.591,2.175,0.739,3.313
			c0.393-0.873,0.573-1.722,0.581-2.748c0.017-2.172,0.766-4.539,1.427-6.627c0.186-0.59,0.369-1.165,0.53-1.719
			c0.41-1.415,0.781-2.85,1.172-4.37c1.04-4.027,2.114-8.191,3.958-11.811c0.825-1.621,1.701-3.217,2.548-4.759
			c1.451-2.643,2.954-5.377,4.195-8.247c2.376-5.495,5.348-10.483,9.348-15.699c2.526-3.294,5.138-6.699,6.569-10.894
			c1.295-3.802,1.743-7.295,1.544-12.057c-0.081-1.94-0.123-3.917-0.161-5.829c-0.067-3.262-0.136-6.634-0.407-9.922
			c-0.081-0.953-0.114-1.898-0.147-2.946c-0.009-0.28,0.189-0.523,0.466-0.571c0.273-0.042,0.543,0.118,0.628,0.385
			c0.714,2.266,1.415,4.288,2.143,6.181c2.196,5.712,4.405,11.882,5.679,18.289c0.066,0.326,0.107,0.878,0.16,1.578
			c0.129,1.69,0.467,6.181,1.727,6.181c0.095,0,0.204-0.024,0.323-0.073c0.879-0.358,1.416-1.41,1.597-3.129
			c0.027-0.263,0.234-0.471,0.497-0.499c0.263-0.029,0.509,0.13,0.591,0.381c0.615,1.86,1.382,3.713,2.124,5.503
			c0.547,1.319,1.111,2.685,1.622,4.065c0.615,1.664,1.061,3.575,1.352,5.809c2.503-3.854,5.769-7.332,8.223-9.946
			c0.522-0.556,1.049-1.108,1.576-1.661c0.624-0.656,1.248-1.311,1.865-1.974c1.111-1.782,2.173-3.434,3.247-5.05
			c0.895-1.348,1.658-2.809,2.395-4.223c0.669-1.281,1.36-2.606,2.158-3.867c2.475-3.906,1.656-8.058,0.788-12.451
			c-0.304-1.544-0.618-3.138-0.778-4.718c-0.193-1.918-0.465-3.864-0.727-5.746l-0.088-0.637c-0.04-0.288,0.147-0.559,0.43-0.623
			c0.281-0.065,0.57,0.097,0.659,0.374c0.145,0.447,0.336,1.033,0.551,1.595c0.668,1.746,1.373,3.502,2.054,5.202
			c1.344,3.349,2.733,6.811,3.9,10.34c1.073,3.242,1.902,6.042,2.554,8.636c0.149-2.224,0.481-4.617,1.172-6.975
			c0.647-2.205,1.487-4.46,2.64-7.098l0.068-0.294c0.414-1.797,0.805-3.494,1.603-5.289c0.502-1.129,0.887-2.332,1.259-3.495
			c0.263-0.824,0.537-1.675,0.852-2.509c0.391-1.033,0.847-2.048,1.288-3.031c0.427-0.949,0.867-1.93,1.241-2.912
			c0.481-1.265,0.852-2.615,1.21-3.92c0.222-0.812,0.452-1.651,0.709-2.469c0.883-2.821,1.17-5.684,0.957-9.575
			c-0.014-0.267,0.162-0.507,0.419-0.574c0.264-0.068,0.53,0.059,0.645,0.3c0.521,1.077,0.929,2.336,1.201,3.169l0.031,0.092
			c0.146,0.451,0.288,0.912,0.431,1.373c0.391,1.266,0.795,2.572,1.324,3.759c0.46-1.471,0.639-3.191,0.812-4.856
			c0.108-1.039,0.219-2.112,0.402-3.12c0.29-1.605,0.582-3.477,0.372-5.386c-0.036-0.321-0.09-0.66-0.178-1.098
			c-0.056-0.278,0.104-0.553,0.372-0.642c0.269-0.089,0.561,0.037,0.684,0.291l0.258,0.548c2.821,5.958,5.738,12.119,9.129,17.895
			c0.405,0.689,1.015,1.294,1.303,1.294c0.091,0,0.191-0.161,0.232-0.23c0.797-1.41,0.303-3.769-0.093-5.665
			c-0.134-0.639-0.26-1.242-0.333-1.775c-0.573-4.189-0.438-8.583,0.438-14.245c0.22-1.42,0.561-2.849,0.889-4.231
			c0.551-2.318,1.121-4.716,1.123-7.09c0.003-7.701-2.184-15.677-4.09-21.766c-0.081-0.258,0.034-0.538,0.272-0.664
			c0.241-0.127,0.536-0.063,0.702,0.149c2.896,3.68,5.622,6.271,8.333,7.922c1.027,0.627,2.335,0.863,3.599,1.093
			c0.698,0.127,1.419,0.257,2.096,0.452c0.914,0.265,1.873,0.435,2.8,0.599c1.665,0.294,3.384,0.598,4.985,1.458
			c0.014-0.02,0.036-0.048,0.051-0.074c-1.081-2.083-2.475-4.122-3.824-6.094c-1.285-1.88-2.615-3.825-3.701-5.839
			c-0.128-0.239-0.068-0.533,0.143-0.704c0.211-0.169,0.512-0.164,0.717,0.014c0.665,0.574,1.316,1.19,1.945,1.786
			c1.023,0.968,2.08,1.968,3.202,2.794c2.875,2.111,5.231,3.348,7.005,3.674c0.041-0.02,0.094-0.065,0.131-0.107
			c-1.036-1.465-2.12-2.933-3.167-4.354c-2.134-2.892-4.34-5.884-6.266-9.014c-0.013-0.022-0.026-0.044-0.035-0.066l-4.537-10.198
			c-3.388-7.612-6.775-15.225-10.148-22.843c-0.703-1.588-1.399-3.179-2.097-4.771c-1.552-3.542-3.155-7.204-4.801-10.77
			l-0.055-0.119c-1.457-3.158-3.107-6.739-6.133-8.614c-0.887-0.548-1.784-0.827-2.667-0.827c-2.604,0-4.917,2.412-6.641,4.513
			c-0.725,0.883-1.489,1.761-2.228,2.61c-1.605,1.844-3.265,3.749-4.601,5.806c-0.831,1.28-1.725,2.535-2.589,3.749
			c-1.334,1.874-2.713,3.811-3.866,5.848c-0.805,1.424-1.659,3.005-2.61,4.839c-0.337,0.65-0.582,1.332-0.842,2.054
			c-0.179,0.494-0.363,1.003-0.578,1.5c-0.075,0.173-0.232,0.297-0.417,0.33c-0.189,0.034-0.376-0.03-0.504-0.168
			c-4.851-5.134-7.264-11.906-9.6-18.456c-0.431-1.212-0.861-2.418-1.304-3.606c-1.218-3.27-2.224-6.671-3.196-9.961
			c-1.161-3.923-2.362-7.98-3.921-11.803c-2.608-6.389-7.44-8.981-13.894-10.907c-3.891-1.162-7.761-2.809-9.725-6.957
			c-2.011-4.242-0.261-9.618,1.018-13.545c3.156-9.691,6.168-21.293,4.592-33.852c-0.384-3.056-1.024-6.331-1.905-9.735
			c-0.753-2.902-2.07-5.65-4.275-8.911c-1.325-1.962-2.824-3.639-4.456-4.987c-3.462-2.86-8.048-4.807-14.022-5.952
			c-3.68-0.705-7.236-1.062-10.572-1.062c-8.322,0-14.951,2.183-19.702,6.49c-1.934,1.753-3.715,3.91-5.605,6.79
			c-0.777,1.185-1.573,2.495-2.504,4.121c-4.435,7.745-5.871,24.365,4.677,45.726c0.479,0.97,1.046,2.02,1.647,3.133
			c3.46,6.409,8.2,15.188,2.439,21.638c-2.871,3.214-7.307,3.714-11.598,4.199c-2.793,0.314-5.429,0.613-7.634,1.6
			c-5.293,2.371-6.459,8.331-7.488,13.589l-0.208,1.055c-0.934,4.672-1.4,9.489-1.852,14.149c-0.342,3.534-0.695,7.188-1.251,10.768
			c-1.298,8.37-3.186,18.081-7.347,26.655c-1.761,3.626-4.261,6.87-6.68,10.005c-0.928,1.205-1.888,2.448-2.784,3.688
			c-2.966,4.105-6.033,8.352-8.509,13.088c-3.618,6.925-5.688,14.488-7.691,21.802c-0.836,3.055-1.701,6.212-2.669,9.302
			c-2.075,6.613-5.073,13.026-9.167,19.606c-0.013,0.021-0.028,0.043-0.045,0.063c-4.107,4.929-8.879,9.928-14.186,14.856
			c-1.697,1.575-3.215,3.42-4.683,5.206l-0.479,0.583c-1.668,2.022-3.428,3.71-5.294,5.498c-0.604,0.579-1.212,1.161-1.821,1.76
			c-1.792,1.765-3.259,4.039-4.457,6.033c-0.35,0.579-0.759,1.161-1.156,1.723c-0.806,1.144-1.638,2.321-2.018,3.566
			c0.872-0.069,1.749-0.544,2.571-1.055c0.208-0.129,0.477-0.109,0.664,0.054c0.186,0.162,0.243,0.425,0.144,0.65
			c-1.785,4.019-2.461,8.018-1.967,11.605c1.036-0.852,1.89-1.877,2.789-2.96c0.264-0.318,0.529-0.638,0.799-0.952
			c2.377-2.766,5.072-5.059,8.012-6.815c3.053-1.825,6.354-2.925,8.889-3.68c2.479-0.738,4.802-0.875,7.262-1.021
			c0.861-0.05,1.752-0.102,2.646-0.183c3.926-0.354,6.833-2.387,9.911-4.537c0.841-0.587,1.708-1.194,2.604-1.769l0.173-0.119
			c0.237-0.157,0.552-0.111,0.735,0.103c0.184,0.215,0.179,0.534-0.012,0.742c-1.251,1.373-2.453,2.729-3.385,4.211
			c-0.572,0.907-1.255,1.713-1.917,2.493c-0.538,0.633-1.05,1.238-1.502,1.886c0.458-0.153,0.855-0.394,1.386-0.817
			c1.942-1.545,4.264-3.26,6.775-4.257c0.768-0.304,1.534-0.594,2.296-0.881c2.964-1.119,5.764-2.176,8.353-3.99
			c1.226-0.858,2.298-1.977,3.335-3.059c0.21-0.219,0.419-0.436,0.629-0.654c0.879-0.904,1.737-1.623,2.701-2.259
			c0.257-0.172,0.605-0.1,0.775,0.158c0.171,0.257,0.102,0.604-0.156,0.776c-0.282,0.201-0.892,0.702-0.993,0.869
			c-0.596,1.052-1.356,2.004-2.089,2.925c-0.535,0.671-1.086,1.363-1.557,2.074c-0.642,0.971-1.247,1.995-1.832,2.986
			c-0.58,0.982-1.18,1.999-1.821,2.973c-4.364,6.638-7.017,14.403-9.582,21.913c-0.344,1.009-0.689,2.015-1.035,3.015
			c-1.144,3.3-2.261,6.663-3.342,9.915c-0.39,1.178-0.782,2.357-1.176,3.536c-0.573,1.711-1.341,3.958-2.225,6.165
			c-0.309,0.772-0.703,1.493-1.083,2.19c-0.391,0.713-0.762,1.392-1.043,2.113c1.529-0.25,2.899-0.997,4.339-1.784l0.175-0.095
			c2.759-1.505,5.833-2.553,8.804-3.565l0.569-0.193c3.584-1.226,7.342-1.798,10.977-2.351c2.482-0.376,5.049-0.767,7.52-1.362
			c4.163-1.001,9.436-2.579,13.3-5.932c1.581-1.373,3.01-2.997,4.365-4.963c0.541-0.786,1.032-1.629,1.507-2.444
			c0.474-0.813,0.964-1.653,1.509-2.45c0.164-0.241,0.483-0.314,0.738-0.171c0.253,0.143,0.355,0.456,0.235,0.721
			c-0.438,0.96-0.947,1.9-1.439,2.812c-0.961,1.779-1.87,3.46-2.331,5.324c-0.067,0.272-0.107,0.651,0.091,0.904
			c0.278,0.354,1.065,0.414,1.675,0.129c1.857-0.87,3.405-2.588,4.902-4.25c0.669-0.741,1.299-1.443,1.962-2.079
			c2.188-2.101,3.761-4.432,5.426-6.898l0.625-0.926c0.146-0.215,0.422-0.301,0.664-0.209c0.243,0.092,0.391,0.34,0.356,0.598
			c-0.143,1.07-0.571,2.432-0.914,3.525c-0.161,0.509-0.307,0.971-0.4,1.33c-0.28,1.076-0.644,2.142-0.997,3.174
			c-0.247,0.724-0.503,1.473-0.725,2.211c-0.907,3.028-1.792,6.261-1.795,9.559l-0.009,12.943c0,0.346-0.021,0.756-0.043,1.199
			c-0.075,1.501-0.178,3.514,0.526,4.549c0.55-0.732,0.888-1.547,1.246-2.411c0.088-0.212,0.177-0.427,0.271-0.643
			c0.315-0.729,0.588-1.451,0.853-2.15c0.775-2.048,1.507-3.981,3.134-5.836c1.902-2.169,4.308-3.516,6.634-4.82
			c2.104-1.177,4.091-2.29,5.768-3.97c1.915-1.917,3.705-4.665,5.175-7.95C126.839,308.803,127.04,308.673,127.26,308.673z"/>
	</g>
	<path style="opacity:0.5;fill:#BEC0C2;" d="M134.772,109.14c-3.383-2.296-6.64-4.792-9.387-7.837
		c-2.697-2.988-4.998-6.275-7.184-9.648c-0.002-0.004-0.002-0.007-0.004-0.01c0.961,4.167,3.884,7.621,6.416,10.951
		c2.608,3.428,5.239,7.129,8.544,9.932c6.225,5.286,15.385,7.391,23.482,7.05c-3.425-2.119-7.258-3.101-10.969-4.642
		C141.86,113.352,138.189,111.461,134.772,109.14z"/>
	<path style="opacity:0.5;fill:#BEC0C2;" d="M89.823,114.158c1.128-3.293,2.641-6.753,5.263-9.147
		c3.137-2.864,6.987-3.267,11.02-3.857c4.63-0.678,9.118-2.35,9.61-7.634c0.077-0.823,0.081-1.645,0.043-2.463
		c-0.41,1.013-1.008,1.988-1.835,2.913c-4.509,5.048-13.257,3.072-19.042,5.661c-5.921,2.651-6.886,9.385-8.016,15.046
		c-1.648,8.242-1.822,16.648-3.108,24.942c-0.754,4.872-1.659,9.807-2.96,14.618C85.964,141.577,85.394,127.08,89.823,114.158z"/>
	<path style="opacity:0.5;fill:#BEC0C2;" d="M269.972,186.467c-3.165-4.491-6.614-8.77-9.496-13.456
		c-4.895-11.013-9.805-22.019-14.683-33.04c-2.294-5.184-4.527-10.401-6.901-15.549c-1.516-3.287-3.195-6.987-6.402-8.974
		c-4.089-2.531-7.479,0.689-10.035,3.806c-2.298,2.8-4.89,5.425-6.866,8.468c-2.113,3.252-4.56,6.242-6.474,9.626
		c-0.904,1.598-1.775,3.228-2.62,4.856c-0.597,1.151-0.925,2.406-1.438,3.589c-5.655-5.986-7.956-14.276-10.786-21.872
		c-2.664-7.156-4.246-14.727-7.123-21.782c-2.706-6.63-7.673-9.269-14.253-11.232c-3.938-1.176-7.532-2.76-9.378-6.658
		c-0.573-1.206-0.818-2.514-0.854-3.861c-0.714,1.839-1.545,3.634-2.523,5.37c-3.424,6.076-8.175,11.238-12.965,16.264
		c6.129-2.096,11.521-5.713,16.476-9.858c0.115-0.096,0.291-0.151,0.426-0.055c2.691,1.911,5.605,3.699,7.878,6.123
		c2.098,2.236,3.31,4.736,4.104,7.683c1.695,6.287,1.948,12.904,1.9,19.382c-0.15,20.405-2.978,40.658-7.872,60.459
		c-4.232,17.115-9.717,35.178-20.294,49.579c13.098-11.359,20.954-26.58,25.493-43.181c4.593-16.798,6.557-34.171,10.693-51.075
		c0.066-0.274,0.52-0.372,0.641-0.084c1.492,3.509,3.193,6.929,4.58,10.482c1.292,3.314,2.549,6.826,2.474,10.431
		c-0.082,3.88-1.727,7.625-3.232,11.137c-1.806,4.211-3.265,8.376-4.645,12.745c-3.13,9.918-6.311,19.744-6.563,30.238
		c-0.188,7.778,0.193,16.947,4.567,23.695c10.034-14.956,6.923-34.392,11.986-51.006c0.119-0.394,0.657-0.296,0.689,0.092
		c0.543,6.538,0.911,13.372,3.248,19.57c0.352-20.502,1.884-41.777,11.23-60.379c0.165-0.327,0.643-0.151,0.654,0.177
		c0.245,7.067,0.528,14.14,1.658,21.12c0.677-11.403,4.391-22.31,7.46-33.261c0.089-0.318,0.61-0.354,0.677,0
		c2.457,12.898,4.149,26.079,9.422,38.224c4.374,10.076,8.521,21.606,7.124,32.765c-0.037,0.29-0.36,0.481-0.6,0.248
		c-4.678-4.563-6.429-10.706-9.404-16.318c-0.748,4.331,0.01,8.807-1.217,13.081c-0.088,0.308-0.473,0.329-0.642,0.084
		c-2.326-3.363-3.62-7.239-4.814-11.122c0.452,5.553,1.874,11.096,1.512,16.654c-0.401,6.144-1.924,12.119-2.782,18.203
		c-0.06,0.418-0.656,0.27-0.689-0.093c-0.905-9.788-3.398-19.246-6.336-28.579c1.958,16.868,1.455,33.814-0.809,50.716
		c-0.049,0.365-0.583,0.51-0.689,0.093c-2.342-9.151-4.202-18.44-7.038-27.46c-0.253,4.06,0.257,8.156,0.988,12.142
		c0.061,0.324-0.326,0.615-0.586,0.342c-4.765-5.032-7.922-10.792-9.631-17.249c0.232,8.751,2.138,17.507,0.762,26.228
		c-1.731,10.969-7.608,20.969-11.56,31.217c-0.128,0.335-0.548,0.332-0.677,0c-3.143-8.026-5.683-16.273-7.432-24.71
		c0.011,4.938,0.059,9.875,0.275,14.81c0.018,0.396-0.6,0.479-0.69,0.093c-1.02-4.342-2.333-8.603-3.795-12.817
		c-1.395-4.014-3.152-7.994-4.112-12.142c-1.199-5.181-1.464-10.494-1.19-15.786c-2.466,4.336-4.957,8.66-7.178,13.127
		c-2.006,4.038-4.127,8.293-5.042,12.737c-0.93,4.521-0.914,9.12-1.046,13.713c-0.12,4.15-0.487,8.317-1.019,12.436
		c-0.453,3.516-1.148,7.027-2.618,10.275c-3.414,7.54-9.486,13.534-12.869,21.135c-0.149,0.335-0.648,0.147-0.654-0.177
		c-0.101-6.145-3.08-11.892-2.383-18.083c0.59-5.249,3.102-10.074,3.458-15.34c-3.709,8.019-4.132,17.31-8.602,24.973
		c-1.802,3.089-4.127,5.76-7.016,7.882c-3.462,2.543-7.329,4.415-10.077,7.822c-0.249,0.309-0.631-0.04-0.587-0.341
		c0.886-6.099-0.114-12.333,1.572-18.33c1.224-4.359,2.967-8.534,4.638-12.735c-2.399,2.941-5.784,5.079-8.426,7.869
		c-0.196,0.207-0.635,0.064-0.6-0.248c0.72-6.361,4.312-11.437,7.784-16.586c-6.381,7.166-14.864,11.438-22.316,17.395
		c-0.238,0.189-0.735,0.024-0.587-0.341c3.103-7.625,5.51-15.53,8.826-23.063c2.977-6.762,6.26-13.469,8.196-20.616
		c-1.786,3.237-3.495,6.518-5.206,9.797c-2.141,4.105-4.161,8.41-6.69,12.295c-4.585,7.04-11.192,12.392-16.252,19.055
		c-0.221,0.291-0.784,0.139-0.641-0.27c3.171-9.114,6.726-18.092,9.985-27.173c-3.073,6.274-5.76,12.767-9.31,18.791
		c-2.968,5.035-6.552,9.127-11.075,12.829c-4.263,3.488-8.751,6.747-12.272,11.026c-0.242,0.294-0.65-0.029-0.587-0.341
		c1.821-9.037,4.426-17.76,9.303-25.657c1.411-2.284,2.959-4.473,4.204-6.859c1.334-2.558,2.49-5.198,3.558-7.879
		c1.629-4.093,3.163-8.224,5.045-12.206c-3.463,3.486-6.669,7.346-10.944,9.844c-0.285,0.166-0.7-0.187-0.481-0.48
		c5.895-7.941,9.67-17.337,12.399-26.782c2.402-8.313,4.074-16.83,5.092-25.421c-4.228,13.322-10.626,26.147-18.578,37.59
		c-3.647,5.248-7.337,11.054-12.621,14.817c-5.969,4.249-13.811,3.601-19.72,7.842c-0.288,0.206-0.668-0.196-0.479-0.48
		c1.46-2.218,2.806-4.505,4.399-6.624c-4.185,2.733-8.428,6.668-13.625,6.031c-0.275-0.035-0.502-0.373-0.248-0.601
		c6.732-6.032,12.654-12.969,17.501-20.603c5.137-8.091,9.213-16.866,11.915-26.068c1.322-4.497,2.371-9.077,3.047-13.716
		c0.616-4.23,1.34-8.477,2.873-12.485c1.333-3.486,3.161-6.729,5.422-9.699c2.8-3.677,6.131-6.877,8.153-11.099
		c1.495-3.123,2.438-6.394,3.059-9.738c-0.324,0.747-0.657,1.489-1.013,2.221c-2.411,4.967-6.199,9.163-9.414,13.609
		c-3.094,4.283-6.095,8.456-8.552,13.157c-5.155,9.864-7.097,20.67-10.398,31.194c-2.188,6.973-5.325,13.398-9.108,19.477
		c-4.361,5.237-9.138,10.162-14.138,14.804c-1.909,1.771-3.56,3.839-5.212,5.843c-2.196,2.663-4.635,4.815-7.076,7.216
		c-1.795,1.767-3.252,3.992-4.546,6.143c-1.107,1.844-2.829,3.665-3.33,5.789c-0.028,0.117,0.03,0.338,0.183,0.35
		c1.157,0.089,2.262-0.482,3.321-1.14c-1.768,3.979-2.635,8.317-1.929,12.443c0.053,0.312,0.379,0.175,0.543,0.049
		c1.539-1.18,2.688-2.744,3.944-4.206c2.275-2.648,4.877-4.909,7.873-6.699c2.745-1.641,5.711-2.716,8.761-3.624
		c3.301-0.983,6.428-0.88,9.799-1.184c5.182-0.469,8.625-3.732,12.765-6.392c0.063-0.041,0.12-0.083,0.181-0.123
		c-1.241,1.362-2.482,2.76-3.445,4.29c-1.102,1.751-2.65,3.121-3.737,4.857c-0.102,0.163-0.151,0.591,0.167,0.539
		c0.995-0.166,1.562-0.462,2.361-1.099c2.005-1.597,4.239-3.225,6.633-4.174c3.733-1.481,7.435-2.602,10.764-4.933
		c1.519-1.064,2.758-2.458,4.045-3.78c0.802-0.828,1.639-1.544,2.606-2.184c-0.029,0.02-0.975,0.715-1.169,1.058
		c-1.006,1.779-2.499,3.263-3.626,4.967c-1.286,1.947-2.373,4.015-3.652,5.962c-4.989,7.588-7.726,16.534-10.679,25.052
		c-1.552,4.478-3.02,8.961-4.521,13.458c-0.69,2.063-1.404,4.112-2.213,6.133c-0.651,1.632-1.711,3.038-2.272,4.7
		c-0.062,0.186-0.03,0.453,0.225,0.43c1.927-0.177,3.552-1.095,5.224-2.006c2.892-1.577,6.176-2.659,9.283-3.721
		c5.979-2.044,12.338-2.227,18.448-3.697c4.775-1.148,9.772-2.788,13.536-6.054c1.713-1.486,3.177-3.206,4.46-5.068
		c1.095-1.591,1.938-3.319,3.017-4.895c-1.257,2.755-3.077,5.294-3.804,8.233c-0.446,1.808,1.288,2.266,2.548,1.674
		c2.792-1.308,4.844-4.347,7.014-6.431c2.507-2.407,4.212-5.097,6.127-7.914c-0.2,1.508-1.002,3.646-1.3,4.788
		c-0.472,1.811-1.178,3.571-1.715,5.366c-0.944,3.148-1.817,6.414-1.819,9.719c-0.004,4.315-0.006,8.629-0.009,12.944
		c-0.001,1.712-0.515,4.986,0.828,6.37c0.175,0.182,0.508-0.086,0.612-0.218c0.768-0.994,1.14-2.09,1.634-3.236
		c1.221-2.83,1.78-5.43,3.893-7.838c3.484-3.974,8.712-5.092,12.378-8.765c2.2-2.202,3.974-5.177,5.289-8.115
		c0.64,2.464,1.447,4.9,2.07,7.254c1.497,5.631,1.71,10.854,1.679,16.649c-0.016,2.685,0.387,5.525,0.683,8.196
		c0.285,2.561,1.397,4.937,1.56,7.494c0.032,0.505,0.69,0.022,0.792-0.178c0.567-1.105,0.821-2.129,0.831-3.385
		c0.022-2.677,1.199-5.664,1.935-8.194c1.523-5.247,2.602-11.191,5.09-16.082c2.245-4.41,4.785-8.475,6.759-13.037
		c2.484-5.74,5.479-10.628,9.278-15.581c2.673-3.486,5.228-6.87,6.654-11.055c1.425-4.179,1.758-7.836,1.573-12.259
		c-0.218-5.249-0.136-10.541-0.57-15.775c-0.081-0.974-0.113-1.945-0.144-2.917c0.657,2.089,1.365,4.161,2.154,6.213
		c2.291,5.959,4.405,11.922,5.654,18.198c0.291,1.466,0.154,9.241,2.97,8.095c1.242-0.506,1.77-1.96,1.942-3.589
		c1.071,3.247,2.548,6.333,3.751,9.586c0.827,2.237,1.264,4.739,1.499,7.293c2.458-4.208,5.974-8.007,9.011-11.241
		c1.152-1.23,2.329-2.441,3.479-3.676c1.063-1.705,2.146-3.397,3.266-5.083c1.724-2.596,2.894-5.466,4.561-8.1
		c3.508-5.54,0.697-11.566,0.094-17.526c-0.217-2.141-0.522-4.271-0.818-6.403c0.178,0.551,0.361,1.096,0.563,1.624
		c1.985,5.191,4.191,10.22,5.944,15.518c1.432,4.33,2.709,8.691,3.549,13.161c-0.061-3.907,0.153-7.785,1.248-11.518
		c0.713-2.427,1.627-4.771,2.636-7.077c0.438-1.898,0.822-3.674,1.649-5.533c0.871-1.958,1.365-4.03,2.122-6.033
		c0.764-2.015,1.762-3.928,2.529-5.94c0.794-2.082,1.263-4.297,1.93-6.422c1.03-3.286,1.163-6.458,0.982-9.774
		c0.523,1.085,0.943,2.397,1.202,3.192c0.604,1.854,1.122,3.848,1.968,5.599c0.201,0.417,0.762-0.186,0.832-0.406
		c0.801-2.518,0.784-5.506,1.255-8.11c0.336-1.864,0.585-3.659,0.377-5.547c-0.043-0.386-0.109-0.768-0.186-1.147
		c2.959,6.253,5.905,12.516,9.411,18.487c0.426,0.724,1.732,2.42,2.505,1.056c1.182-2.089-0.063-5.628-0.359-7.793
		c-0.645-4.721-0.289-9.392,0.438-14.083c0.586-3.789,2.016-7.539,2.017-11.408c0.005-7.356-1.9-14.857-4.114-21.933
		c2.414,3.064,5.249,6.083,8.481,8.054c1.704,1.04,3.949,1.061,5.831,1.605c2.604,0.752,5.339,0.721,7.764,2.059
		c0.38,0.209,0.957-0.426,0.765-0.8c-2.124-4.122-5.34-7.883-7.568-12.015c1.737,1.502,3.336,3.251,5.182,4.607
		c1.96,1.439,4.873,3.363,7.298,3.786C269.604,187.401,270.219,186.819,269.972,186.467z"/>
	<path style="opacity:0.5;fill:#BEC0C2;" d="M119.838,171.93c-1.581-2.601-3.033-5.269-4.392-7.982
		c0.395,1.202,0.792,2.403,1.184,3.605c2.585,7.95,5.514,16.027,10.373,22.912c4.174,5.915,9.516,10.724,16.732,12.363
		c6.02,1.365,12.558,0.41,16.22-4.849C142.206,202.564,128.017,185.391,119.838,171.93z"/>
	<path style="opacity:0.5;fill:#BEC0C2;" d="M152.232,177.75c-5.396-1.075-10.629-2.782-15.349-5.664
		c-3.485-2.13-6.729-4.747-9.53-7.746c3.045,5.614,7.611,10.465,12.994,13.744c4.281,2.606,9.344,4.598,14.43,4.433
		c4.583-0.148,8.752-1.808,12.725-3.933C162.417,179.203,157.247,178.749,152.232,177.75z"/>
	<path style="opacity:0.5;fill:#BEC0C2;" d="M128.47,139.003c3.488,2.135,7.851,3.518,11.733,4.697
		c2.226,0.678,4.746,1.498,7.104,1.286c0.751-0.067,1.773-0.282,1.902-1.184c0.182-1.289-2.202-1.575-3.107-1.777
		c-3.284-0.734-6.35-1.389-9.421-2.881c-4.154-2.017-8.011-4.745-11.375-7.909c-3.715-3.495-7.177-7.662-9.641-12.285
		C117.523,127.03,121.283,134.603,128.47,139.003z"/>
	<path style="opacity:0.5;fill:#BEC0C2;" d="M99.574,169.352c-0.61-2.855-1.193-5.716-1.76-8.579
		c0.218,2.698,0.185,5.425,0.059,8.096c-0.289,6.123-0.943,12.207-1.075,18.339c-0.299,13.797-0.019,27.877,5.524,40.737
		c1.922-3.938,2.48-8.454,2.636-12.787c0.154-4.256,0.016-8.544-0.305-12.789C103.813,191.244,101.907,180.253,99.574,169.352z"/>
	<g>
		<g>
			<path style="fill:#464547;" d="M132.028,40.96c-0.849-4.286-3.113-10.524-8.226-11.014c-1.835-0.176-4.823,1.604-5.969,2.939
				c-2.543,2.968-2.594,8.357-2.034,11.998c0.653,4.233,3.43,8.218,7.848,9.053C130.658,55.26,133.064,46.188,132.028,40.96z"/>
			<path style="fill:#464547;" d="M148.502,53.847c4.475-0.453,7.583-4.184,8.597-8.344c0.871-3.58,1.284-8.954-0.996-12.128
				c-1.025-1.43-3.851-3.46-5.694-3.442c-5.137,0.048-7.928,6.069-9.142,10.268C139.787,45.32,141.405,54.564,148.502,53.847z"/>
			<path style="fill:#231F20;" d="M131.621,39.703c-0.599-1.929-1.545-4.129-3.462-5.083c-1.99-0.991-4.636-1.159-6.45,0.354
				c-2.905,2.423-3.234,7.007-2.641,10.49c0.487,2.854,1.717,6.868,4.439,8.439c0.047,0.009,0.092,0.023,0.14,0.033
				c6.409,1.21,8.967-6.265,8.568-11.552C132.083,41.475,131.893,40.577,131.621,39.703z"/>
			<path style="fill:#231F20;" d="M151.013,53.201c0.813-2.118,1.224-4.668,1.412-5.757c0.655-3.776,1.3-9.784-2.188-12.367
				c-3.156-2.336-6.015-0.667-7.99,2.311c-0.402,0.969-0.726,1.93-0.981,2.812c-1.48,5.12,0.138,14.364,7.235,13.647
				C149.396,53.757,150.234,53.531,151.013,53.201z"/>
		</g>
		<path style="fill:#464547;" d="M117.247,57.333c0,0,7.522,12.428,22.332,10.07c13.783-2.194,19.799-13.433,19.799-13.433
			s0.335,18.427-15.044,23.656C121.108,85.522,117.247,57.333,117.247,57.333z"/>
		<path style="fill:#231F20;" d="M138.601,71.856c-3.583,0.562-8.046,1.846-10.617,4.702c3.927,2.513,9.227,3.49,16.351,1.067
			c2.662-0.906,4.845-2.213,6.649-3.746C147.327,71.771,142.675,71.218,138.601,71.856z"/>
	</g>
	<path style="fill:#A3A5A8;" d="M206.146,142.707c-3.729,9.077-6.027,18.151-7.335,27.88c-1.288,9.574-2.428,18.99-2.242,28.673
		c0.006,0.305,0.494-0.036,0.499-0.243c0.219-9.324,1.255-18.459,2.478-27.692c1.309-9.894,3.338-19.351,7.002-28.653
		C206.68,142.333,206.234,142.492,206.146,142.707z"/>
	<path style="fill:#A3A5A8;" d="M143.011,104.354c-6.636-5.74-13.61-10.752-19.362-17.455c-5.965-6.954-10.04-14.941-13.59-23.33
		c-0.051-0.121-0.262,0.086-0.218,0.193c3.311,8.235,7.125,16.012,12.681,22.98c5.625,7.056,12.752,12.915,20.126,18.06
		C142.845,104.941,143.195,104.513,143.011,104.354z"/>
	<path style="fill:#A3A5A8;" d="M159.067,71.399c-1.059,5.719-3.474,10.981-6.884,15.667c-0.261,0.358,0.067,0.637,0.347,0.28
		c3.628-4.645,5.956-10.292,6.939-16.092C159.522,70.952,159.103,71.209,159.067,71.399z"/>
	<path style="fill:#A3A5A8;" d="M99.046,167.749c-3.871-18.793-6.903-37.872-7.294-57.071c-0.003-0.134-0.217,0.014-0.22,0.105
		c-0.365,18.576,2.552,37.177,6.241,55.354c3.795,18.698,8.341,38.196,5.767,57.345c-0.051,0.377,0.451,0.053,0.491-0.177
		C107.232,204.951,102.748,185.716,99.046,167.749z"/>
	<path style="fill:#A3A5A8;" d="M85.334,205.884c-1.891,11.421-3.955,22.717-8.661,33.376c-4.581,10.371-11.2,19.056-20.263,25.945
		c-0.244,0.186-0.225,0.762,0.146,0.5c8.59-6.071,15.404-14.393,19.754-23.946c5.278-11.592,7.593-23.438,9.311-35.977
		C85.65,205.562,85.357,205.749,85.334,205.884z"/>
	<path style="fill:#A3A5A8;" d="M184.452,114.84c-0.133,11.43-1.675,22.847-2.896,34.195c-1.134,10.553-2.505,21.114-4.793,31.476
		c-2.369,10.726-5.822,20.916-10.254,30.961c-2.239,5.079-4.62,10.178-7.355,15.01c-2.577,4.554-6.348,8.362-9.712,12.326
		c-0.188,0.223,0.033,0.393,0.224,0.18c3.123-3.476,6.47-6.832,9.048-10.752c3.045-4.633,5.408-9.815,7.729-14.839
		c4.504-9.757,8.244-19.816,10.613-30.313c2.487-11.02,3.922-22.094,5.237-33.307c1.363-11.629,2.464-23.38,2.419-35.096
		C184.711,114.515,184.454,114.72,184.452,114.84z"/>
	<path style="fill:#A3A5A8;" d="M158.218,201.713c-4.721,2.7-8.643,4.421-13.997,2.436c-4.143-1.536-7.238-4.119-10.213-7.309
		c-5.98-6.412-10.673-14.5-14.58-22.306c-4.001-7.997-6.688-16.71-9.5-25.174c-2.974-8.947-5.215-18.143-7.058-27.383
		c-0.03-0.149-0.245,0.03-0.225,0.138c1.778,9.728,3.975,19.356,6.985,28.781c3.036,9.506,6.131,19.167,10.915,27.959
		c4.315,7.931,9.243,16,16.008,22.093c2.919,2.629,6.744,4.408,10.603,5.086c4.001,0.701,8.051-1.658,11.111-3.93
		C158.437,201.977,158.54,201.528,158.218,201.713z"/>
	<path style="fill:#A3A5A8;" d="M158.276,181.198c-3.265,0.882-6.942,0.209-10.226-0.359c-3.333-0.579-6.381-1.987-9.085-4.001
		c-4.776-3.56-9.148-9.247-11.159-14.816c-0.044-0.122-0.257,0.083-0.218,0.193c2.155,6.223,6.831,12.513,12.248,16.308
		c2.854,2,6.197,2.928,9.606,3.433c2.863,0.423,6.021,0.889,8.763-0.248C158.41,181.623,158.651,181.096,158.276,181.198z"/>
	<path style="fill:#A3A5A8;" d="M199.005,157.648c-5.06,17.561-8.18,35.447-10.182,53.597c-1.005,9.117-1.487,18.068-4.345,26.845
		c-0.563,1.73-1.788,4.038-2.863,1.613c-0.502-1.137-0.725-2.41-0.985-3.62c-0.815-3.79-1.031-7.72-1.191-11.588
		c-0.01-0.224-0.359,0.029-0.362,0.177c-0.101,4.096,0.123,8.212,0.92,12.233c0.287,1.449,0.604,4.684,2.355,5.147
		c1.628,0.431,2.544-2.568,2.778-3.543c0.561-2.334,1.539-4.552,2.028-6.904c0.548-2.63,0.921-5.294,1.212-7.964
		c2.43-22.31,4.883-44.325,10.933-66.021C199.376,157.361,199.054,157.474,199.005,157.648z"/>
</g>
</svg>
